<?xml version="1.0" encoding="UTF-8" standalone="no"?>
<!DOCTYPE svg PUBLIC "-//W3C//DTD SVG 1.1//EN" "http://www.w3.org/Graphics/SVG/1.1/DTD/svg11.dtd">
<svg version="1.1" xmlns="http://www.w3.org/2000/svg" xmlns:xlink="http://www.w3.org/1999/xlink" preserveAspectRatio="xMidYMid meet" viewBox="0 0 512 512" width="512" height="512"><defs><path d="M494 256C494 387.36 387.36 494 256 494C124.64 494 18 387.36 18 256C18 124.64 124.64 18 256 18C387.36 18 494 124.64 494 256Z" id="aSQw3XBma"></path><path d="M380.14 342.78C386.48 348.1 387.31 357.56 381.99 363.9C351.76 399.92 351.6 400.11 341.6 412.03C280.44 484.91 171.78 494.42 98.9 433.26C186.88 507.09 183.9 504.59 89.98 425.78C85.11 421.7 80.53 417.41 76.23 412.94C19.1 353.62 12.23 262.83 63.04 202.28C104.26 153.15 121.66 132.41 115.24 140.07C120.56 133.73 130.01 132.9 136.35 138.22C187.41 181.06 329.09 299.94 380.14 342.78Z" id="bajgoTHPY"></path><path d="M126.92 354.22L258.82 377.95L385.08 354.22L385.08 134.05L258.82 156.06L126.92 134.05L126.92 354.22Z" id="bCn34m2zN"></path><path d="M136.27 347.26L259.28 369.4L377.03 347.26L377.03 141.94L259.28 162.46L136.27 141.94L136.27 347.26Z" id="bwLGe7GN7"></path><path d="M143.27 342.03L260.15 363.06L372.03 342.03L372.03 146.94L260.15 166.44L143.27 146.94L143.27 342.03Z" id="a12yizzjHG"></path><path d="M247.73 188.89L201.71 180.93L156.58 173.12L247.73 188.89Z" id="d1Nde2BZtc"></path><path d="M247.73 260.51L201.71 252.54L156.58 244.73L247.73 260.51Z" id="bCkBANN7U"></path><path d="M247.73 330.97L201.71 323.01L156.58 315.2L247.73 330.97Z" id="d1A7hbB68r"></path><path d="M247.73 224.4L201.71 216.43L156.58 208.62L247.73 224.4Z" id="aeoSpga6S"></path><path d="M247.73 295.21L201.71 287.25L156.58 279.44L247.73 295.21Z" id="i2bVaMW9qH"></path><path d="M260 371.06L260 161.91L260 371.06Z" id="cRjrXUgOT"></path><path d="M271.22 188.89L317.24 180.93L362.37 173.12L271.22 188.89Z" id="a1qArMM2Ji"></path><path d="M271.22 260.51L317.24 252.54L362.37 244.73L271.22 260.51Z" id="auo1Ca6Hz"></path><path d="M271.22 330.97L317.24 323.01L362.37 315.2L271.22 330.97Z" id="b2cCaaQ87J"></path><path d="M271.22 224.4L317.24 216.43L362.37 208.62L271.22 224.4Z" id="e4H8wMh5s"></path><path d="M271.22 295.21L317.24 287.25L362.37 279.44L271.22 295.21Z" id="d205IneBfI"></path></defs><g><g><g><use xlink:href="#aSQw3XBma" opacity="1" fill="#080899" fill-opacity="1"></use><g><use xlink:href="#aSQw3XBma" opacity="1" fill-opacity="0" stroke="#080899" stroke-width="1" stroke-opacity="1"></use></g></g><g><use xlink:href="#bajgoTHPY" opacity="0.5" fill="#000000" fill-opacity="1"></use></g><g><use xlink:href="#bCn34m2zN" opacity="1" fill="#080899" fill-opacity="1"></use><g><use xlink:href="#bCn34m2zN" opacity="1" fill-opacity="0" stroke="#ffffff" stroke-width="2" stroke-opacity="1"></use></g></g><g><use xlink:href="#bwLGe7GN7" opacity="1" fill="#e4e4e4" fill-opacity="1"></use><g><use xlink:href="#bwLGe7GN7" opacity="1" fill-opacity="0" stroke="#f6f6f6" stroke-width="1" stroke-opacity="1"></use></g></g><g><use xlink:href="#a12yizzjHG" opacity="1" fill="#f6f6f6" fill-opacity="1"></use><g><use xlink:href="#a12yizzjHG" opacity="1" fill-opacity="0" stroke="#f6f6f6" stroke-width="1" stroke-opacity="1"></use></g></g><g><use xlink:href="#d1Nde2BZtc" opacity="1" fill="#080899" fill-opacity="1"></use><g><use xlink:href="#d1Nde2BZtc" opacity="1" fill-opacity="0" stroke="#080b99" stroke-width="4" stroke-opacity="1"></use></g></g><g><use xlink:href="#bCkBANN7U" opacity="1" fill="#080899" fill-opacity="1"></use><g><use xlink:href="#bCkBANN7U" opacity="1" fill-opacity="0" stroke="#080b99" stroke-width="4" stroke-opacity="1"></use></g></g><g><use xlink:href="#d1A7hbB68r" opacity="1" fill="#080899" fill-opacity="1"></use><g><use xlink:href="#d1A7hbB68r" opacity="1" fill-opacity="0" stroke="#080b99" stroke-width="4" stroke-opacity="1"></use></g></g><g><use xlink:href="#aeoSpga6S" opacity="1" fill="#080899" fill-opacity="1"></use><g><use xlink:href="#aeoSpga6S" opacity="1" fill-opacity="0" stroke="#080b99" stroke-width="4" stroke-opacity="1"></use></g></g><g><use xlink:href="#i2bVaMW9qH" opacity="1" fill="#080899" fill-opacity="1"></use><g><use xlink:href="#i2bVaMW9qH" opacity="1" fill-opacity="0" stroke="#080b99" stroke-width="4" stroke-opacity="1"></use></g></g><g><use xlink:href="#cRjrXUgOT" opacity="1" fill="#080899" fill-opacity="1"></use><g><use xlink:href="#cRjrXUgOT" opacity="1" fill-opacity="0" stroke="#080899" stroke-width="3" stroke-opacity="1"></use></g></g><g><use xlink:href="#a1qArMM2Ji" opacity="1" fill="#080899" fill-opacity="1"></use><g><use xlink:href="#a1qArMM2Ji" opacity="1" fill-opacity="0" stroke="#080b99" stroke-width="4" stroke-opacity="1"></use></g></g><g><use xlink:href="#auo1Ca6Hz" opacity="1" fill="#080899" fill-opacity="1"></use><g><use xlink:href="#auo1Ca6Hz" opacity="1" fill-opacity="0" stroke="#080b99" stroke-width="4" stroke-opacity="1"></use></g></g><g><use xlink:href="#b2cCaaQ87J" opacity="1" fill="#080899" fill-opacity="1"></use><g><use xlink:href="#b2cCaaQ87J" opacity="1" fill-opacity="0" stroke="#080b99" stroke-width="4" stroke-opacity="1"></use></g></g><g><use xlink:href="#e4H8wMh5s" opacity="1" fill="#080899" fill-opacity="1"></use><g><use xlink:href="#e4H8wMh5s" opacity="1" fill-opacity="0" stroke="#080b99" stroke-width="4" stroke-opacity="1"></use></g></g><g><use xlink:href="#d205IneBfI" opacity="1" fill="#080899" fill-opacity="1"></use><g><use xlink:href="#d205IneBfI" opacity="1" fill-opacity="0" stroke="#080b99" stroke-width="4" stroke-opacity="1"></use></g></g></g></g></svg>