<?xml version="1.0" encoding="UTF-8" standalone="no"?>
<!DOCTYPE svg PUBLIC "-//W3C//DTD SVG 1.1//EN" "http://www.w3.org/Graphics/SVG/1.1/DTD/svg11.dtd">
<svg version="1.1" xmlns="http://www.w3.org/2000/svg" xmlns:xlink="http://www.w3.org/1999/xlink" preserveAspectRatio="xMidYMid meet" viewBox="0 0 512 512" width="512" height="512"><defs><path d="M512 256C512 397.29 397.29 512 256 512C114.71 512 0 397.29 0 256C0 114.71 114.71 0 256 0C397.29 0 512 114.71 512 256Z" id="aEPjttqkJ"></path><path d="M328.44 96C359.13 96 384 120.87 384 151.56C384 206.05 384 350.53 384 414.17C384 419.6 379.6 424 374.17 424C326.53 424 193.47 424 145.83 424C140.4 424 136 419.6 136 414.17C136 350.53 136 169.47 136 105.83C136 100.4 140.4 96 145.83 96C193.47 96 289.95 96 328.44 96Z" id="fbaOGZrhV"></path><path d="M318 96C323.42 96 326.8 96 328.15 96C359 96 384 121 384 151.85C384 153.2 384 156.58 384 162C354.44 162 335.97 162 328.58 162C322.73 162 318 157.27 318 151.42C318 144.03 318 125.56 318 96Z" id="apQviuOD5"></path><path d="M272 142.55C276.42 142.55 280 146.13 280 150.55C280 152.44 280 150.11 280 152C280 156.42 276.42 160 272 160C249.6 160 190.4 160 168 160C163.58 160 160 156.42 160 152C160 150.11 160 152.44 160 150.55C160 146.13 163.58 142.55 168 142.55C190.4 142.55 249.6 142.55 272 142.55Z" id="b5IJOn8Nee"></path><path d="M352 200C356.42 200 360 203.58 360 208C360 209.89 360 207.56 360 209.45C360 213.87 356.42 217.45 352 217.45C313.6 217.45 206.4 217.45 168 217.45C163.58 217.45 160 213.87 160 209.45C160 207.56 160 209.89 160 208C160 203.58 163.58 200 168 200C206.4 200 313.6 200 352 200Z" id="b6teT9ZRrM"></path><path d="M352 256C356.42 256 360 259.58 360 264C360 265.89 360 263.56 360 265.45C360 269.87 356.42 273.45 352 273.45C313.6 273.45 206.4 273.45 168 273.45C163.58 273.45 160 269.87 160 265.45C160 263.56 160 265.89 160 264C160 259.58 163.58 256 168 256C206.4 256 313.6 256 352 256Z" id="a1lT68lTe5"></path><path d="M352 312C356.42 312 360 315.58 360 320C360 321.89 360 319.56 360 321.45C360 325.87 356.42 329.45 352 329.45C313.6 329.45 206.4 329.45 168 329.45C163.58 329.45 160 325.87 160 321.45C160 319.56 160 321.89 160 320C160 315.58 163.58 312 168 312C206.4 312 313.6 312 352 312Z" id="b17ikRXKnf"></path><path d="M352 368C356.42 368 360 371.58 360 376C360 377.89 360 375.56 360 377.45C360 381.87 356.42 385.45 352 385.45C313.6 385.45 206.4 385.45 168 385.45C163.58 385.45 160 381.87 160 377.45C160 375.56 160 377.89 160 376C160 371.58 163.58 368 168 368C206.4 368 313.6 368 352 368Z" id="b4G0zHY4xT"></path></defs><g><g><g><use xlink:href="#aEPjttqkJ" opacity="1" fill="#0a0abc" fill-opacity="1"></use><g><use xlink:href="#aEPjttqkJ" opacity="1" fill-opacity="0" stroke="#0a0abc" stroke-width="1" stroke-opacity="1"></use></g></g><g><g><filter id="shadow10050842" x="91" y="51" width="338" height="418" filterUnits="userSpaceOnUse" primitiveUnits="userSpaceOnUse"><feFlood></feFlood><feComposite in2="SourceAlpha" operator="in"></feComposite><feGaussianBlur stdDeviation="3.16"></feGaussianBlur><feOffset dx="0" dy="0" result="afterOffset"></feOffset><feFlood flood-color="#000000" flood-opacity="0.19"></feFlood><feComposite in2="afterOffset" operator="in"></feComposite><feMorphology operator="dilate" radius="20"></feMorphology><feComposite in2="SourceAlpha" operator="out"></feComposite></filter><path d="M328.44 96C359.13 96 384 120.87 384 151.56C384 206.05 384 350.53 384 414.17C384 419.6 379.6 424 374.17 424C326.53 424 193.47 424 145.83 424C140.4 424 136 419.6 136 414.17C136 350.53 136 169.47 136 105.83C136 100.4 140.4 96 145.83 96C193.47 96 289.95 96 328.44 96Z" id="a2eDMxktbR" fill="white" fill-opacity="1" filter="url(#shadow10050842)"></path></g><g><filter id="shadow13309411" x="113" y="73" width="294" height="374" filterUnits="userSpaceOnUse" primitiveUnits="userSpaceOnUse"><feFlood></feFlood><feComposite in2="SourceAlpha" operator="in"></feComposite><feGaussianBlur stdDeviation="2.45"></feGaussianBlur><feOffset dx="0" dy="0" result="afterOffset"></feOffset><feFlood flood-color="#000000" flood-opacity="0.23"></feFlood><feComposite in2="afterOffset" operator="in"></feComposite><feMorphology operator="dilate" radius="6"></feMorphology><feComposite in2="SourceAlpha" operator="out"></feComposite></filter><path d="M328.44 96C359.13 96 384 120.87 384 151.56C384 206.05 384 350.53 384 414.17C384 419.6 379.6 424 374.17 424C326.53 424 193.47 424 145.83 424C140.4 424 136 419.6 136 414.17C136 350.53 136 169.47 136 105.83C136 100.4 140.4 96 145.83 96C193.47 96 289.95 96 328.44 96Z" id="a49Lrt7Oa" fill="white" fill-opacity="1" filter="url(#shadow13309411)"></path></g><use xlink:href="#fbaOGZrhV" opacity="1" fill="#dddddd" fill-opacity="1"></use><g><use xlink:href="#fbaOGZrhV" opacity="1" fill-opacity="0" stroke="#dddddd" stroke-width="1" stroke-opacity="1"></use></g></g><g><g><filter id="shadow2604240" x="310" y="88" width="83" height="83" filterUnits="userSpaceOnUse" primitiveUnits="userSpaceOnUse"><feFlood></feFlood><feComposite in2="SourceAlpha" operator="in"></feComposite><feGaussianBlur stdDeviation="1"></feGaussianBlur><feOffset dx="-1" dy="1" result="afterOffset"></feOffset><feFlood flood-color="#000000" flood-opacity="0.5"></feFlood><feComposite in2="afterOffset" operator="in"></feComposite><feMorphology operator="dilate" radius="0"></feMorphology><feComposite in2="SourceAlpha" operator="out"></feComposite></filter><path d="M318 96C323.42 96 326.8 96 328.15 96C359 96 384 121 384 151.85C384 153.2 384 156.58 384 162C354.44 162 335.97 162 328.58 162C322.73 162 318 157.27 318 151.42C318 144.03 318 125.56 318 96Z" id="a1bg5Aa220" fill="white" fill-opacity="1" filter="url(#shadow2604240)"></path></g><use xlink:href="#apQviuOD5" opacity="1" fill="#dddddd" fill-opacity="1"></use><g><use xlink:href="#apQviuOD5" opacity="1" fill-opacity="0" stroke="#dddddd" stroke-width="1" stroke-opacity="1"></use></g></g><g><use xlink:href="#b5IJOn8Nee" opacity="1" fill="#969696" fill-opacity="1"></use></g><g><use xlink:href="#b6teT9ZRrM" opacity="1" fill="#969696" fill-opacity="1"></use><g><use xlink:href="#b6teT9ZRrM" opacity="1" fill-opacity="0" stroke="#dddddd" stroke-width="1" stroke-opacity="1"></use></g></g><g><use xlink:href="#a1lT68lTe5" opacity="1" fill="#969696" fill-opacity="1"></use></g><g><use xlink:href="#b17ikRXKnf" opacity="1" fill="#969696" fill-opacity="1"></use></g><g><use xlink:href="#b4G0zHY4xT" opacity="1" fill="#969696" fill-opacity="1"></use></g></g></g></svg>