<?xml version="1.0" encoding="UTF-8" standalone="no"?>
<!DOCTYPE svg PUBLIC "-//W3C//DTD SVG 1.1//EN" "http://www.w3.org/Graphics/SVG/1.1/DTD/svg11.dtd">
<svg version="1.1" xmlns="http://www.w3.org/2000/svg" xmlns:xlink="http://www.w3.org/1999/xlink" preserveAspectRatio="xMidYMid meet" viewBox="0 0 512 512" width="512" height="512"><defs><path d="M512 256C512 397.29 397.29 512 256 512C114.71 512 0 397.29 0 256C0 114.71 114.71 0 256 0C397.29 0 512 114.71 512 256Z" id="h39YiP8kil"></path><path d="M266.52 148.17L267.11 148.24L267.69 148.34L268.26 148.46L268.82 148.62L269.37 148.8L269.91 149.01L270.44 149.25L270.96 149.51L271.47 149.8L271.95 150.12L272.43 150.46L272.88 150.82L273.32 151.21L273.73 151.62L274.13 152.05L274.5 152.5L274.85 152.98L275.18 153.47L275.48 153.99L275.75 154.52L276 155.07L276.21 155.64L276.4 156.23L276.56 156.83L276.68 157.45L276.77 158.08L276.82 158.73L276.84 159.39L276.84 357.66L276.82 358.27L276.77 358.86L276.69 359.44L276.58 360.01L276.44 360.57L276.26 361.1L276.07 361.63L275.84 362.13L275.59 362.62L275.31 363.09L275.01 363.55L274.69 363.98L274.35 364.4L273.99 364.8L273.6 365.17L273.2 365.53L272.79 365.86L272.35 366.18L271.9 366.47L271.44 366.73L270.97 366.97L270.48 367.19L269.98 367.39L269.47 367.56L268.96 367.7L268.43 367.81L267.9 367.9L267.36 367.96L266.82 367.99L266.28 368L265.73 367.97L265.19 367.92L264.64 367.83L264.09 367.71L263.55 367.56L263.01 367.38L262.47 367.16L261.94 366.92L261.41 366.63L260.89 366.32L185.26 317.18L183.64 316.13L114.67 316.13L114.49 316.13L114.31 316.12L114.13 316.1L113.95 316.07L113.78 316.04L113.61 316L113.44 315.96L113.28 315.91L113.12 315.85L112.96 315.79L112.8 315.72L112.65 315.64L112.5 315.56L112.35 315.47L112.21 315.38L112.07 315.28L111.94 315.18L111.81 315.07L111.68 314.96L111.56 314.84L111.44 314.72L111.33 314.6L111.22 314.47L111.12 314.33L111.02 314.19L110.93 314.05L110.84 313.91L110.76 313.76L110.69 313.6L110.62 313.45L110.55 313.29L110.5 313.13L110.44 312.96L110.4 312.79L110.36 312.62L110.33 312.45L110.3 312.27L110.29 312.1L110.27 311.92L110.27 311.74L110.27 202.29L110.27 202.11L110.29 201.93L110.3 201.75L110.33 201.58L110.36 201.41L110.4 201.24L110.44 201.07L110.5 200.9L110.55 200.74L110.62 200.58L110.69 200.43L110.76 200.27L110.84 200.12L110.93 199.98L111.02 199.83L111.12 199.7L111.22 199.56L111.33 199.43L111.44 199.31L111.56 199.18L111.68 199.07L111.81 198.95L111.94 198.85L112.07 198.74L112.21 198.65L112.35 198.56L112.5 198.47L112.65 198.39L112.8 198.31L112.96 198.24L113.12 198.18L113.28 198.12L113.44 198.07L113.61 198.02L113.78 197.99L113.95 197.95L114.13 197.93L114.31 197.91L114.49 197.9L114.67 197.9L185.7 197.9L259.48 149.96L260.04 149.62L260.61 149.31L261.19 149.04L261.78 148.81L262.37 148.61L262.96 148.45L263.56 148.32L264.15 148.22L264.75 148.16L265.34 148.13L265.94 148.14L266.52 148.17Z" id="c27VHLRrFR"></path><path d="M365.05 184.13C369.16 184.13 372.49 187.46 372.49 191.57C372.49 220.48 372.49 299.78 372.49 328.7C372.49 332.8 369.16 336.13 365.05 336.13C363.34 336.13 365.64 336.13 363.93 336.13C359.82 336.13 356.49 332.8 356.49 328.7C356.49 299.78 356.49 220.48 356.49 191.57C356.49 187.46 359.82 184.13 363.93 184.13C365.64 184.13 363.34 184.13 365.05 184.13Z" id="aFm7yau3q"></path><path d="M397.05 164.13C401.16 164.13 404.49 167.46 404.49 171.57C404.49 208.48 404.49 311.78 404.49 348.7C404.49 352.8 401.16 356.13 397.05 356.13C395.34 356.13 397.64 356.13 395.93 356.13C391.82 356.13 388.49 352.8 388.49 348.7C388.49 311.78 388.49 208.48 388.49 171.57C388.49 167.46 391.82 164.13 395.93 164.13C397.64 164.13 395.34 164.13 397.05 164.13Z" id="f8MWI6wo"></path><path d="M333.05 204.13C337.16 204.13 340.49 207.46 340.49 211.57C340.49 232.48 340.49 287.78 340.49 308.7C340.49 312.8 337.16 316.13 333.05 316.13C331.34 316.13 333.64 316.13 331.93 316.13C327.82 316.13 324.49 312.8 324.49 308.7C324.49 287.78 324.49 232.48 324.49 211.57C324.49 207.46 327.82 204.13 331.93 204.13C333.64 204.13 331.34 204.13 333.05 204.13Z" id="bfycLdfSu"></path><path d="M303.71 224.13C306.35 224.13 308.49 226.27 308.49 228.91C308.49 242.36 308.49 277.91 308.49 291.35C308.49 293.99 306.35 296.13 303.71 296.13C301.47 296.13 299.51 296.13 297.27 296.13C294.63 296.13 292.49 293.99 292.49 291.35C292.49 277.91 292.49 242.36 292.49 228.91C292.49 226.27 294.63 224.13 297.27 224.13C299.51 224.13 301.47 224.13 303.71 224.13Z" id="i2OQMDywbg"></path></defs><g><g><g><g><filter id="shadow5010478" x="-11" y="-11" width="534" height="534" filterUnits="userSpaceOnUse" primitiveUnits="userSpaceOnUse"><feFlood></feFlood><feComposite in2="SourceAlpha" operator="in"></feComposite><feGaussianBlur stdDeviation="1.41"></feGaussianBlur><feOffset dx="0" dy="0" result="afterOffset"></feOffset><feFlood flood-color="#000000" flood-opacity="0.5"></feFlood><feComposite in2="afterOffset" operator="in"></feComposite><feMorphology operator="dilate" radius="2"></feMorphology><feComposite in2="SourceAlpha" operator="out"></feComposite></filter><path d="M512 256C512 397.29 397.29 512 256 512C114.71 512 0 397.29 0 256C0 114.71 114.71 0 256 0C397.29 0 512 114.71 512 256Z" id="a70hjz3eND" fill="white" fill-opacity="1" filter="url(#shadow5010478)"></path></g><use xlink:href="#h39YiP8kil" opacity="1" fill="#0a0abc" fill-opacity="1"></use><g><use xlink:href="#h39YiP8kil" opacity="1" fill-opacity="0" stroke="#0a0abc" stroke-width="1" stroke-opacity="1"></use></g></g><g><g><filter id="shadow16766255" x="99.27" y="137.13" width="188.57" height="241.86" filterUnits="userSpaceOnUse" primitiveUnits="userSpaceOnUse"><feFlood></feFlood><feComposite in2="SourceAlpha" operator="in"></feComposite><feGaussianBlur stdDeviation="1.41"></feGaussianBlur><feOffset dx="0" dy="0" result="afterOffset"></feOffset><feFlood flood-color="#000000" flood-opacity="0.23"></feFlood><feComposite in2="afterOffset" operator="in"></feComposite><feMorphology operator="dilate" radius="2"></feMorphology><feComposite in2="SourceAlpha" operator="out"></feComposite></filter><path d="M266.52 148.17L267.11 148.24L267.69 148.34L268.26 148.46L268.82 148.62L269.37 148.8L269.91 149.01L270.44 149.25L270.96 149.51L271.47 149.8L271.95 150.12L272.43 150.46L272.88 150.82L273.32 151.21L273.73 151.62L274.13 152.05L274.5 152.5L274.85 152.98L275.18 153.47L275.48 153.99L275.75 154.52L276 155.07L276.21 155.64L276.4 156.23L276.56 156.83L276.68 157.45L276.77 158.08L276.82 158.73L276.84 159.39L276.84 357.66L276.82 358.27L276.77 358.86L276.69 359.44L276.58 360.01L276.44 360.57L276.26 361.1L276.07 361.63L275.84 362.13L275.59 362.62L275.31 363.09L275.01 363.55L274.69 363.98L274.35 364.4L273.99 364.8L273.6 365.17L273.2 365.53L272.79 365.86L272.35 366.18L271.9 366.47L271.44 366.73L270.97 366.97L270.48 367.19L269.98 367.39L269.47 367.56L268.96 367.7L268.43 367.81L267.9 367.9L267.36 367.96L266.82 367.99L266.28 368L265.73 367.97L265.19 367.92L264.64 367.83L264.09 367.71L263.55 367.56L263.01 367.38L262.47 367.16L261.94 366.92L261.41 366.63L260.89 366.32L185.26 317.18L183.64 316.13L114.67 316.13L114.49 316.13L114.31 316.12L114.13 316.1L113.95 316.07L113.78 316.04L113.61 316L113.44 315.96L113.28 315.91L113.12 315.85L112.96 315.79L112.8 315.72L112.65 315.64L112.5 315.56L112.35 315.47L112.21 315.38L112.07 315.28L111.94 315.18L111.81 315.07L111.68 314.96L111.56 314.84L111.44 314.72L111.33 314.6L111.22 314.47L111.12 314.33L111.02 314.19L110.93 314.05L110.84 313.91L110.76 313.76L110.69 313.6L110.62 313.45L110.55 313.29L110.5 313.13L110.44 312.96L110.4 312.79L110.36 312.62L110.33 312.45L110.3 312.27L110.29 312.1L110.27 311.92L110.27 311.74L110.27 202.29L110.27 202.11L110.29 201.93L110.3 201.75L110.33 201.58L110.36 201.41L110.4 201.24L110.44 201.07L110.5 200.9L110.55 200.74L110.62 200.58L110.69 200.43L110.76 200.27L110.84 200.12L110.93 199.98L111.02 199.83L111.12 199.7L111.22 199.56L111.33 199.43L111.44 199.31L111.56 199.18L111.68 199.07L111.81 198.95L111.94 198.85L112.07 198.74L112.21 198.65L112.35 198.56L112.5 198.47L112.65 198.39L112.8 198.31L112.96 198.24L113.12 198.18L113.28 198.12L113.44 198.07L113.61 198.02L113.78 197.99L113.95 197.95L114.13 197.93L114.31 197.91L114.49 197.9L114.67 197.9L185.7 197.9L259.48 149.96L260.04 149.62L260.61 149.31L261.19 149.04L261.78 148.81L262.37 148.61L262.96 148.45L263.56 148.32L264.15 148.22L264.75 148.16L265.34 148.13L265.94 148.14L266.52 148.17Z" id="bctTnQblM" fill="white" fill-opacity="1" filter="url(#shadow16766255)"></path></g><g><filter id="shadow11975888" x="85.27" y="123.13" width="216.57" height="269.86" filterUnits="userSpaceOnUse" primitiveUnits="userSpaceOnUse"><feFlood></feFlood><feComposite in2="SourceAlpha" operator="in"></feComposite><feGaussianBlur stdDeviation="2.24"></feGaussianBlur><feOffset dx="0" dy="0" result="afterOffset"></feOffset><feFlood flood-color="#000000" flood-opacity="0.19"></feFlood><feComposite in2="afterOffset" operator="in"></feComposite><feMorphology operator="dilate" radius="10"></feMorphology><feComposite in2="SourceAlpha" operator="out"></feComposite></filter><path d="M266.52 148.17L267.11 148.24L267.69 148.34L268.26 148.46L268.82 148.62L269.37 148.8L269.91 149.01L270.44 149.25L270.96 149.51L271.47 149.8L271.95 150.12L272.43 150.46L272.88 150.82L273.32 151.21L273.73 151.62L274.13 152.05L274.5 152.5L274.85 152.98L275.18 153.47L275.48 153.99L275.75 154.52L276 155.07L276.21 155.64L276.4 156.23L276.56 156.83L276.68 157.45L276.77 158.08L276.82 158.73L276.84 159.39L276.84 357.66L276.82 358.27L276.77 358.86L276.69 359.44L276.58 360.01L276.44 360.57L276.26 361.1L276.07 361.63L275.84 362.13L275.59 362.62L275.31 363.09L275.01 363.55L274.69 363.98L274.35 364.4L273.99 364.8L273.6 365.17L273.2 365.53L272.79 365.86L272.35 366.18L271.9 366.47L271.44 366.73L270.97 366.97L270.48 367.19L269.98 367.39L269.47 367.56L268.96 367.7L268.43 367.81L267.9 367.9L267.36 367.96L266.82 367.99L266.28 368L265.73 367.97L265.19 367.92L264.64 367.83L264.09 367.71L263.55 367.56L263.01 367.38L262.47 367.16L261.94 366.92L261.41 366.63L260.89 366.32L185.26 317.18L183.64 316.13L114.67 316.13L114.49 316.13L114.31 316.12L114.13 316.1L113.95 316.07L113.78 316.04L113.61 316L113.44 315.96L113.28 315.91L113.12 315.85L112.96 315.79L112.8 315.72L112.65 315.64L112.5 315.56L112.35 315.47L112.21 315.38L112.07 315.28L111.94 315.18L111.81 315.07L111.68 314.96L111.56 314.84L111.44 314.72L111.33 314.6L111.22 314.47L111.12 314.33L111.02 314.19L110.93 314.05L110.84 313.91L110.76 313.76L110.69 313.6L110.62 313.45L110.55 313.29L110.5 313.13L110.44 312.96L110.4 312.79L110.36 312.62L110.33 312.45L110.3 312.27L110.29 312.1L110.27 311.92L110.27 311.74L110.27 202.29L110.27 202.11L110.29 201.93L110.3 201.75L110.33 201.58L110.36 201.41L110.4 201.24L110.44 201.07L110.5 200.9L110.55 200.74L110.62 200.58L110.69 200.43L110.76 200.27L110.84 200.12L110.93 199.98L111.02 199.83L111.12 199.7L111.22 199.56L111.33 199.43L111.44 199.31L111.56 199.18L111.68 199.07L111.81 198.95L111.94 198.85L112.07 198.74L112.21 198.65L112.35 198.56L112.5 198.47L112.65 198.39L112.8 198.31L112.96 198.24L113.12 198.18L113.28 198.12L113.44 198.07L113.61 198.02L113.78 197.99L113.95 197.95L114.13 197.93L114.31 197.91L114.49 197.9L114.67 197.9L185.7 197.9L259.48 149.96L260.04 149.62L260.61 149.31L261.19 149.04L261.78 148.81L262.37 148.61L262.96 148.45L263.56 148.32L264.15 148.22L264.75 148.16L265.34 148.13L265.94 148.14L266.52 148.17Z" id="a1nJn29JcD" fill="white" fill-opacity="1" filter="url(#shadow11975888)"></path></g><use xlink:href="#c27VHLRrFR" opacity="1" fill="#dddddd" fill-opacity="1"></use></g><g><g><filter id="shadow7329625" x="345.49" y="173.13" width="38" height="174" filterUnits="userSpaceOnUse" primitiveUnits="userSpaceOnUse"><feFlood></feFlood><feComposite in2="SourceAlpha" operator="in"></feComposite><feGaussianBlur stdDeviation="1.41"></feGaussianBlur><feOffset dx="0" dy="0" result="afterOffset"></feOffset><feFlood flood-color="#000000" flood-opacity="0.23"></feFlood><feComposite in2="afterOffset" operator="in"></feComposite><feMorphology operator="dilate" radius="2"></feMorphology><feComposite in2="SourceAlpha" operator="out"></feComposite></filter><path d="M365.05 184.13C369.16 184.13 372.49 187.46 372.49 191.57C372.49 220.48 372.49 299.78 372.49 328.7C372.49 332.8 369.16 336.13 365.05 336.13C363.34 336.13 365.64 336.13 363.93 336.13C359.82 336.13 356.49 332.8 356.49 328.7C356.49 299.78 356.49 220.48 356.49 191.57C356.49 187.46 359.82 184.13 363.93 184.13C365.64 184.13 363.34 184.13 365.05 184.13Z" id="a6YzXBgJoD" fill="white" fill-opacity="1" filter="url(#shadow7329625)"></path></g><g><filter id="shadow14814498" x="331.49" y="159.13" width="66" height="202" filterUnits="userSpaceOnUse" primitiveUnits="userSpaceOnUse"><feFlood></feFlood><feComposite in2="SourceAlpha" operator="in"></feComposite><feGaussianBlur stdDeviation="2.24"></feGaussianBlur><feOffset dx="0" dy="0" result="afterOffset"></feOffset><feFlood flood-color="#000000" flood-opacity="0.19"></feFlood><feComposite in2="afterOffset" operator="in"></feComposite><feMorphology operator="dilate" radius="10"></feMorphology><feComposite in2="SourceAlpha" operator="out"></feComposite></filter><path d="M365.05 184.13C369.16 184.13 372.49 187.46 372.49 191.57C372.49 220.48 372.49 299.78 372.49 328.7C372.49 332.8 369.16 336.13 365.05 336.13C363.34 336.13 365.64 336.13 363.93 336.13C359.82 336.13 356.49 332.8 356.49 328.7C356.49 299.78 356.49 220.48 356.49 191.57C356.49 187.46 359.82 184.13 363.93 184.13C365.64 184.13 363.34 184.13 365.05 184.13Z" id="bdi3mxNe1" fill="white" fill-opacity="1" filter="url(#shadow14814498)"></path></g><use xlink:href="#aFm7yau3q" opacity="1" fill="#dddddd" fill-opacity="1"></use></g><g><g><filter id="shadow14981122" x="377.49" y="153.13" width="38" height="214" filterUnits="userSpaceOnUse" primitiveUnits="userSpaceOnUse"><feFlood></feFlood><feComposite in2="SourceAlpha" operator="in"></feComposite><feGaussianBlur stdDeviation="1.41"></feGaussianBlur><feOffset dx="0" dy="0" result="afterOffset"></feOffset><feFlood flood-color="#000000" flood-opacity="0.23"></feFlood><feComposite in2="afterOffset" operator="in"></feComposite><feMorphology operator="dilate" radius="2"></feMorphology><feComposite in2="SourceAlpha" operator="out"></feComposite></filter><path d="M397.05 164.13C401.16 164.13 404.49 167.46 404.49 171.57C404.49 208.48 404.49 311.78 404.49 348.7C404.49 352.8 401.16 356.13 397.05 356.13C395.34 356.13 397.64 356.13 395.93 356.13C391.82 356.13 388.49 352.8 388.49 348.7C388.49 311.78 388.49 208.48 388.49 171.57C388.49 167.46 391.82 164.13 395.93 164.13C397.64 164.13 395.34 164.13 397.05 164.13Z" id="b1op2QneQu" fill="white" fill-opacity="1" filter="url(#shadow14981122)"></path></g><g><filter id="shadow1613943" x="363.49" y="139.13" width="66" height="242" filterUnits="userSpaceOnUse" primitiveUnits="userSpaceOnUse"><feFlood></feFlood><feComposite in2="SourceAlpha" operator="in"></feComposite><feGaussianBlur stdDeviation="2.24"></feGaussianBlur><feOffset dx="0" dy="0" result="afterOffset"></feOffset><feFlood flood-color="#000000" flood-opacity="0.19"></feFlood><feComposite in2="afterOffset" operator="in"></feComposite><feMorphology operator="dilate" radius="10"></feMorphology><feComposite in2="SourceAlpha" operator="out"></feComposite></filter><path d="M397.05 164.13C401.16 164.13 404.49 167.46 404.49 171.57C404.49 208.48 404.49 311.78 404.49 348.7C404.49 352.8 401.16 356.13 397.05 356.13C395.34 356.13 397.64 356.13 395.93 356.13C391.82 356.13 388.49 352.8 388.49 348.7C388.49 311.78 388.49 208.48 388.49 171.57C388.49 167.46 391.82 164.13 395.93 164.13C397.64 164.13 395.34 164.13 397.05 164.13Z" id="cgxFKXLOZ" fill="white" fill-opacity="1" filter="url(#shadow1613943)"></path></g><use xlink:href="#f8MWI6wo" opacity="1" fill="#dddddd" fill-opacity="1"></use></g><g><g><filter id="shadow2832469" x="313.49" y="193.13" width="38" height="134" filterUnits="userSpaceOnUse" primitiveUnits="userSpaceOnUse"><feFlood></feFlood><feComposite in2="SourceAlpha" operator="in"></feComposite><feGaussianBlur stdDeviation="1.41"></feGaussianBlur><feOffset dx="0" dy="0" result="afterOffset"></feOffset><feFlood flood-color="#000000" flood-opacity="0.23"></feFlood><feComposite in2="afterOffset" operator="in"></feComposite><feMorphology operator="dilate" radius="2"></feMorphology><feComposite in2="SourceAlpha" operator="out"></feComposite></filter><path d="M333.05 204.13C337.16 204.13 340.49 207.46 340.49 211.57C340.49 232.48 340.49 287.78 340.49 308.7C340.49 312.8 337.16 316.13 333.05 316.13C331.34 316.13 333.64 316.13 331.93 316.13C327.82 316.13 324.49 312.8 324.49 308.7C324.49 287.78 324.49 232.48 324.49 211.57C324.49 207.46 327.82 204.13 331.93 204.13C333.64 204.13 331.34 204.13 333.05 204.13Z" id="bACBTUO2" fill="white" fill-opacity="1" filter="url(#shadow2832469)"></path></g><g><filter id="shadow821895" x="299.49" y="179.13" width="66" height="162" filterUnits="userSpaceOnUse" primitiveUnits="userSpaceOnUse"><feFlood></feFlood><feComposite in2="SourceAlpha" operator="in"></feComposite><feGaussianBlur stdDeviation="2.24"></feGaussianBlur><feOffset dx="0" dy="0" result="afterOffset"></feOffset><feFlood flood-color="#000000" flood-opacity="0.19"></feFlood><feComposite in2="afterOffset" operator="in"></feComposite><feMorphology operator="dilate" radius="10"></feMorphology><feComposite in2="SourceAlpha" operator="out"></feComposite></filter><path d="M333.05 204.13C337.16 204.13 340.49 207.46 340.49 211.57C340.49 232.48 340.49 287.78 340.49 308.7C340.49 312.8 337.16 316.13 333.05 316.13C331.34 316.13 333.64 316.13 331.93 316.13C327.82 316.13 324.49 312.8 324.49 308.7C324.49 287.78 324.49 232.48 324.49 211.57C324.49 207.46 327.82 204.13 331.93 204.13C333.64 204.13 331.34 204.13 333.05 204.13Z" id="g2hpRnUQxv" fill="white" fill-opacity="1" filter="url(#shadow821895)"></path></g><use xlink:href="#bfycLdfSu" opacity="1" fill="#dddddd" fill-opacity="1"></use></g><g><g><filter id="shadow12009389" x="281.49" y="213.13" width="38" height="94" filterUnits="userSpaceOnUse" primitiveUnits="userSpaceOnUse"><feFlood></feFlood><feComposite in2="SourceAlpha" operator="in"></feComposite><feGaussianBlur stdDeviation="1.41"></feGaussianBlur><feOffset dx="0" dy="0" result="afterOffset"></feOffset><feFlood flood-color="#000000" flood-opacity="0.23"></feFlood><feComposite in2="afterOffset" operator="in"></feComposite><feMorphology operator="dilate" radius="2"></feMorphology><feComposite in2="SourceAlpha" operator="out"></feComposite></filter><path d="M303.71 224.13C306.35 224.13 308.49 226.27 308.49 228.91C308.49 242.36 308.49 277.91 308.49 291.35C308.49 293.99 306.35 296.13 303.71 296.13C301.47 296.13 299.51 296.13 297.27 296.13C294.63 296.13 292.49 293.99 292.49 291.35C292.49 277.91 292.49 242.36 292.49 228.91C292.49 226.27 294.63 224.13 297.27 224.13C299.51 224.13 301.47 224.13 303.71 224.13Z" id="a6f70CZLv" fill="white" fill-opacity="1" filter="url(#shadow12009389)"></path></g><g><filter id="shadow15261278" x="267.49" y="199.13" width="66" height="122" filterUnits="userSpaceOnUse" primitiveUnits="userSpaceOnUse"><feFlood></feFlood><feComposite in2="SourceAlpha" operator="in"></feComposite><feGaussianBlur stdDeviation="2.24"></feGaussianBlur><feOffset dx="0" dy="0" result="afterOffset"></feOffset><feFlood flood-color="#000000" flood-opacity="0.19"></feFlood><feComposite in2="afterOffset" operator="in"></feComposite><feMorphology operator="dilate" radius="10"></feMorphology><feComposite in2="SourceAlpha" operator="out"></feComposite></filter><path d="M303.71 224.13C306.35 224.13 308.49 226.27 308.49 228.91C308.49 242.36 308.49 277.91 308.49 291.35C308.49 293.99 306.35 296.13 303.71 296.13C301.47 296.13 299.51 296.13 297.27 296.13C294.63 296.13 292.49 293.99 292.49 291.35C292.49 277.91 292.49 242.36 292.49 228.91C292.49 226.27 294.63 224.13 297.27 224.13C299.51 224.13 301.47 224.13 303.71 224.13Z" id="aWUiSfZS" fill="white" fill-opacity="1" filter="url(#shadow15261278)"></path></g><use xlink:href="#i2OQMDywbg" opacity="1" fill="#dddddd" fill-opacity="1"></use></g></g></g></svg>