<?xml version="1.0" encoding="UTF-8" standalone="no"?>
<!DOCTYPE svg PUBLIC "-//W3C//DTD SVG 1.1//EN" "http://www.w3.org/Graphics/SVG/1.1/DTD/svg11.dtd">
<svg version="1.1" xmlns="http://www.w3.org/2000/svg" xmlns:xlink="http://www.w3.org/1999/xlink" preserveAspectRatio="xMidYMid meet" viewBox="0 0 512 512" width="512" height="512"><defs><path d="M512 256C512 397.29 397.29 512 256 512C114.71 512 0 397.29 0 256C0 114.71 114.71 0 256 0C397.29 0 512 114.71 512 256Z" id="bscQkdv3Y"></path><path d="M432 136C436.42 136 440 139.58 440 144C440 192 440 328 440 376C440 380.42 436.42 384 432 384C361.6 384 158.4 384 88 384C83.58 384 80 380.42 80 376C80 328 80 192 80 144C80 139.58 83.58 136 88 136C158.4 136 361.6 136 432 136Z" id="csshMrf9M"></path><path d="M422.71 144C426.89 144 430.28 147.39 430.28 151.57C430.28 196.46 430.28 323.54 430.28 368.43C430.28 372.61 426.89 376 422.71 376C356.08 376 163.75 376 97.12 376C92.93 376 89.54 372.61 89.54 368.43C89.54 323.54 89.54 196.46 89.54 151.57C89.54 147.39 92.93 144 97.12 144C163.75 144 356.08 144 422.71 144Z" id="a9GOg6bJNF"></path><path d="M317.65 318.93L361.63 376L273.66 376L185.69 376L229.67 318.93C246.66 299 257.28 286.54 261.53 281.55C267.89 274.08 279.43 274.08 285.79 281.55C290.04 286.54 300.66 299 317.65 318.93Z" id="bmxaauK2K"></path><path d="M223.96 293.94L266.62 376L181.31 376L96 376L138.65 293.94C154.25 266.79 164 249.82 167.9 243.03C173.85 232.69 188.77 232.69 194.71 243.03C198.61 249.82 208.36 266.79 223.96 293.94Z" id="b1Yx1mzr2b"></path><path d="M371.99 196.01C371.99 211.46 359.45 224 344 224C328.55 224 316.01 211.46 316.01 196.01C316.01 180.56 328.55 168.02 344 168.02C359.45 168.02 371.99 180.56 371.99 196.01Z" id="b1EQL3QG6g"></path></defs><g><g><g><use xlink:href="#bscQkdv3Y" opacity="1" fill="#0a0abc" fill-opacity="1"></use><g><use xlink:href="#bscQkdv3Y" opacity="1" fill-opacity="0" stroke="#0a0abc" stroke-width="1" stroke-opacity="1"></use></g></g><g><g><filter id="shadow3224602" x="69" y="125" width="382" height="270" filterUnits="userSpaceOnUse" primitiveUnits="userSpaceOnUse"><feFlood></feFlood><feComposite in2="SourceAlpha" operator="in"></feComposite><feGaussianBlur stdDeviation="1.41"></feGaussianBlur><feOffset dx="0" dy="0" result="afterOffset"></feOffset><feFlood flood-color="#000000" flood-opacity="0.23"></feFlood><feComposite in2="afterOffset" operator="in"></feComposite><feMorphology operator="dilate" radius="2"></feMorphology><feComposite in2="SourceAlpha" operator="out"></feComposite></filter><path d="M432 136C436.42 136 440 139.58 440 144C440 192 440 328 440 376C440 380.42 436.42 384 432 384C361.6 384 158.4 384 88 384C83.58 384 80 380.42 80 376C80 328 80 192 80 144C80 139.58 83.58 136 88 136C158.4 136 361.6 136 432 136Z" id="blhuDEGX4" fill="white" fill-opacity="1" filter="url(#shadow3224602)"></path></g><g><filter id="shadow2227327" x="55" y="111" width="410" height="298" filterUnits="userSpaceOnUse" primitiveUnits="userSpaceOnUse"><feFlood></feFlood><feComposite in2="SourceAlpha" operator="in"></feComposite><feGaussianBlur stdDeviation="2.24"></feGaussianBlur><feOffset dx="0" dy="0" result="afterOffset"></feOffset><feFlood flood-color="#000000" flood-opacity="0.19"></feFlood><feComposite in2="afterOffset" operator="in"></feComposite><feMorphology operator="dilate" radius="10"></feMorphology><feComposite in2="SourceAlpha" operator="out"></feComposite></filter><path d="M432 136C436.42 136 440 139.58 440 144C440 192 440 328 440 376C440 380.42 436.42 384 432 384C361.6 384 158.4 384 88 384C83.58 384 80 380.42 80 376C80 328 80 192 80 144C80 139.58 83.58 136 88 136C158.4 136 361.6 136 432 136Z" id="a4brXugpcg" fill="white" fill-opacity="1" filter="url(#shadow2227327)"></path></g><use xlink:href="#csshMrf9M" opacity="1" fill="#5f2e01" fill-opacity="1"></use></g><g><use xlink:href="#a9GOg6bJNF" opacity="1" fill="#dddddd" fill-opacity="1"></use><g><use xlink:href="#a9GOg6bJNF" opacity="1" fill-opacity="0" stroke="#dddddd" stroke-width="1" stroke-opacity="1"></use></g></g><g><g><filter id="shadow10053110" x="173.69" y="263.95" width="200.94" height="125.05" filterUnits="userSpaceOnUse" primitiveUnits="userSpaceOnUse"><feFlood></feFlood><feComposite in2="SourceAlpha" operator="in"></feComposite><feGaussianBlur stdDeviation="1.41"></feGaussianBlur><feOffset dx="1" dy="1" result="afterOffset"></feOffset><feFlood flood-color="#000000" flood-opacity="0.5"></feFlood><feComposite in2="afterOffset" operator="in"></feComposite><feMorphology operator="dilate" radius="2"></feMorphology><feComposite in2="SourceAlpha" operator="out"></feComposite></filter><path d="M317.65 318.93L361.63 376L273.66 376L185.69 376L229.67 318.93C246.66 299 257.28 286.54 261.53 281.55C267.89 274.08 279.43 274.08 285.79 281.55C290.04 286.54 300.66 299 317.65 318.93Z" id="c1KAxs62yj" fill="white" fill-opacity="1" filter="url(#shadow10053110)"></path></g><use xlink:href="#bmxaauK2K" opacity="1" fill="#5f8f31" fill-opacity="1"></use><g><use xlink:href="#bmxaauK2K" opacity="1" fill-opacity="0" stroke="#7aab4a" stroke-width="1" stroke-opacity="1"></use></g></g><g><g><filter id="shadow7291878" x="84" y="223.28" width="195.62" height="165.72" filterUnits="userSpaceOnUse" primitiveUnits="userSpaceOnUse"><feFlood></feFlood><feComposite in2="SourceAlpha" operator="in"></feComposite><feGaussianBlur stdDeviation="1.41"></feGaussianBlur><feOffset dx="1" dy="1" result="afterOffset"></feOffset><feFlood flood-color="#000000" flood-opacity="0.5"></feFlood><feComposite in2="afterOffset" operator="in"></feComposite><feMorphology operator="dilate" radius="2"></feMorphology><feComposite in2="SourceAlpha" operator="out"></feComposite></filter><path d="M223.96 293.94L266.62 376L181.31 376L96 376L138.65 293.94C154.25 266.79 164 249.82 167.9 243.03C173.85 232.69 188.77 232.69 194.71 243.03C198.61 249.82 208.36 266.79 223.96 293.94Z" id="a1sKnDv0PZ" fill="white" fill-opacity="1" filter="url(#shadow7291878)"></path></g><use xlink:href="#b1Yx1mzr2b" opacity="1" fill="#7aab4a" fill-opacity="1"></use><g><use xlink:href="#b1Yx1mzr2b" opacity="1" fill-opacity="0" stroke="#7aab4a" stroke-width="1" stroke-opacity="1"></use></g></g><g><use xlink:href="#b1EQL3QG6g" opacity="1" fill="#d4b902" fill-opacity="1"></use><g><use xlink:href="#b1EQL3QG6g" opacity="1" fill-opacity="0" stroke="#d4b902" stroke-width="1" stroke-opacity="1"></use></g></g></g></g></svg>